<svg xmlns="http://www.w3.org/2000/svg" viewBox="0 0 64 64" role="img" aria-labelledby="title desc">
  <title id="title">Taap Kavach mark</title>
  <desc id="desc">A pixel-grid heat shield with a rising sun, representing local heat protection.</desc>
  <rect width="64" height="64" fill="#f4efe2"/>
  <rect x="8" y="8" width="48" height="4" fill="#174f49"/>
  <rect x="8" y="52" width="48" height="4" fill="#174f49"/>
  <rect x="8" y="12" width="4" height="40" fill="#174f49"/>
  <rect x="52" y="12" width="4" height="40" fill="#174f49"/>
  <rect x="16" y="16" width="32" height="4" fill="#174f49"/>
  <rect x="12" y="20" width="8" height="4" fill="#174f49"/>
  <rect x="44" y="20" width="8" height="4" fill="#174f49"/>
  <rect x="16" y="24" width="32" height="4" fill="#c48728"/>
  <rect x="20" y="20" width="24" height="4" fill="#c48728"/>
  <rect x="24" y="16" width="16" height="4" fill="#c48728"/>
  <rect x="20" y="28" width="24" height="4" fill="#174f49"/>
  <rect x="16" y="32" width="32" height="4" fill="#174f49"/>
  <rect x="16" y="36" width="8" height="4" fill="#174f49"/>
  <rect x="40" y="36" width="8" height="4" fill="#174f49"/>
  <rect x="20" y="40" width="24" height="4" fill="#174f49"/>
  <rect x="24" y="44" width="16" height="4" fill="#174f49"/>
  <rect x="28" y="48" width="8" height="4" fill="#174f49"/>
  <rect x="24" y="32" width="4" height="4" fill="#f4efe2"/>
  <rect x="36" y="32" width="4" height="4" fill="#f4efe2"/>
</svg>
